<svg width="33" height="24" viewBox="0 0 33 24" fill="none" xmlns="http://www.w3.org/2000/svg">
<path d="M4.79688 23.6094H0.265625V6.70312H4.79688V23.6094ZM0 2.32812C0 1.65104 0.223958 1.09375 0.671875 0.65625C1.13021 0.21875 1.75 0 2.53125 0C3.30208 0 3.91667 0.21875 4.375 0.65625C4.83333 1.09375 5.0625 1.65104 5.0625 2.32812C5.0625 3.01562 4.82812 3.57812 4.35938 4.01562C3.90104 4.45312 3.29167 4.67188 2.53125 4.67188C1.77083 4.67188 1.15625 4.45312 0.6875 4.01562C0.229167 3.57812 0 3.01562 0 2.32812Z" fill="#E1E1E6"/>
<path d="M9.04688 21.3906C9.04688 20.6719 9.28646 20.0885 9.76562 19.6406C10.2552 19.1927 10.8646 18.9688 11.5938 18.9688C12.3333 18.9688 12.9427 19.1927 13.4219 19.6406C13.9115 20.0885 14.1562 20.6719 14.1562 21.3906C14.1562 22.099 13.9167 22.6771 13.4375 23.125C12.9583 23.5625 12.3438 23.7812 11.5938 23.7812C10.8542 23.7812 10.2448 23.5625 9.76562 23.125C9.28646 22.6771 9.04688 22.099 9.04688 21.3906Z" fill="#E1E1E6"/>
<path d="M22.2812 6.70312L22.4219 8.65625C23.6302 7.14583 25.25 6.39062 27.2812 6.39062C29.0729 6.39062 30.4062 6.91667 31.2812 7.96875C32.1562 9.02083 32.6042 10.5938 32.625 12.6875V23.6094H28.1094V12.7969C28.1094 11.8385 27.901 11.1458 27.4844 10.7188C27.0677 10.2812 26.375 10.0625 25.4062 10.0625C24.1354 10.0625 23.1823 10.6042 22.5469 11.6875V23.6094H18.0312V6.70312H22.2812Z" fill="#E1E1E6"/>
</svg>
